#!OML:ASF E:\motion texture\Top Level 1\Subject 1\Session 1\male.ASF
:FULLY-SPECIFIED
:DEGREES
171
root 34.5659 17.1683 5.492 146.898 -76.2385 -139.998
lowerback -3.97788 3.74834 8.2511
upperback -4.12306 4.63446 3.13115
thorax -1.6588 2.07502 -1.22551
lowerneck -20.5854 -4.29629 -6.06272
upperneck 16.5245 -5.73491 7.56722
head 8.96938 -2.28397 2.79355
rclavicle 2.90226e-014 1.0138e-014
rhumerus -29.4978 15.6336 -88.3059
rradius 65.8539
rwrist -3.35393
rhand -11.4281 -9.2448
rfingers 7.12502
rthumb 14.6081 -38.7103
lclavicle 2.90226e-014 1.0138e-014
lhumerus -51.1721 1.10974 90.8672
lradius 44.0459
lwrist 1.29515
lhand -10.2082 15.0559
lfingers 7.12502
lthumb 15.7831 44.4324
rfemur 11.3997 4.17957 28.698
rtibia 22.8797
rfoot -11.4449 -0.0421189
rtoes -13.8941
lfemur -41.6775 13.0804 -10.4509
ltibia 51.5709
lfoot 359.537 -3.01691
ltoes -9.20098
172
root 34.382 17.1436 5.52157 147.269 -76.6548 -140.463
lowerback -4.34043 3.53669 8.07626
upperback -4.19623 4.31915 3.06424
thorax -1.56388 1.92226 -1.19242
lowerneck -20.5879 -4.17809 -5.94089
upperneck 16.8045 -5.61 7.4708
head 9.04989 -2.22631 2.76029
rclavicle -3.32964e-014 -1.43125e-014
rhumerus -31.2008 15.4942 -88.4707
rradius 64.5434
rwrist -2.89062
rhand -11.1928 -9.2303
rfingers 7.12502
rthumb 14.8348 -38.6793
lclavicle -3.32964e-014 -1.43125e-014
lhumerus -50.1827 1.46018 90.9803
lradius 43.7447
lwrist 1.21264
lhand -10.5627 15.1221
lfingers 7.12502
lthumb 15.4418 44.5253
rfemur 10.6767 3.4952 27.7139
rtibia 25.0944
rfoot -10.1576 0.78219
rtoes -14.2982
lfemur -39.2809 12.7789 -11.078
ltibia 49.5303
lfoot 356.108 -3.09681
ltoes -7.17516
173
root 34.2046 17.1247 5.55224 147.71 -77.237 -141.068
lowerback -4.53785 3.26183 7.74811
upperback -4.29963 3.94866 2.99556
thorax -1.60477 1.74143 -1.09227
lowerneck -20.5187 -4.04888 -5.83823
upperneck 17.0678 -5.46179 7.35415
head 9.11059 -2.16315 2.72702
rclavicle -4.29872e-015 -3.97569e-016
rhumerus -32.9573 15.2711 -88.5591
rradius 63.1708
rwrist -2.37845
rhand -10.9104 -9.23356
rfingers 7.12502
rthumb 15.1068 -38.6623
lclavicle -4.29872e-015 -3.97569e-016
lhumerus -49.1457 1.79245 91.1573
lradius 43.4221
lwrist 1.09721
lhand -10.9339 15.2162
lfingers 7.12502
lthumb 15.0841 44.6466
rfemur 9.71998 2.69049 26.5591
rtibia 27.6756
rfoot -8.35641 1.59545
rtoes -14.316
lfemur -37.1332 12.4957 -11.9413
ltibia 47.6384
lfoot 353.473 -2.89223
ltoes -4.21111
174
root 34.0354 17.1128 5.58306 148.228 -77.9712 -141.83
lowerback -4.60825 2.92718 7.28592
upperback -4.36788 3.51886 2.92048
thorax -1.6875 1.5357 -0.933349
lowerneck -20.4659 -3.91216 -5.74842
upperneck 17.2846 -5.29236 7.23117
head 9.15718 -2.09149 2.69619
rclavicle 2.17172e-014 1.23246e-014
rhumerus -34.6279 14.9426 -88.5375
rradius 61.7094
rwrist -1.83737
rhand -10.6055 -9.27963
rfingers 7.12502
rthumb 15.4005 -38.686
lclavicle 2.17172e-014 1.23246e-014
lhumerus -47.9388 2.09029 91.3918
lradius 43.054
lwrist 0.985375
lhand -11.2982 15.3308
lfingers 7.12502
lthumb 14.7332 44.7872
rfemur 8.52895 1.80716 25.2752
rtibia 30.6233
rfoot -5.94395 2.30995
rtoes -13.7372
lfemur -35.2063 12.1679 -12.9669
ltibia 45.91
lfoot 351.585 -2.57322
ltoes -1.23086
175
root 33.8753 17.1081 5.61337 148.8 -78.8377 -142.728
lowerback -4.50993 2.54606 6.69684
upperback -4.41628 3.04977 2.8431
thorax -1.84644 1.31376 -0.713675
lowerneck -20.4333 -3.78238 -5.67363
upperneck 17.4742 -5.12387 7.10778
head 9.19891 -2.02103 2.66714
rclavicle -3.48122e-014 -4.17448e-014
rhumerus -36.2186 14.4713 -88.3825
rradius 60.1494
rwrist -1.29725
rhand -10.2849 -9.383
rfingers 7.12502
rthumb 15.7093 -38.7654
lclavicle -3.48122e-014 -4.17448e-014
lhumerus -46.5799 2.31821 91.6918
lradius 42.6373
lwrist 0.901055
lhand -11.6292 15.4586
lfingers 7.12502
lthumb 14.4143 44.9381
rfemur 7.1145 0.878489 23.9103
rtibia 33.9105
rfoot -2.86035 2.85766
rtoes -12.45
lfemur -33.4635 11.7088 -14.0682
ltibia 44.3668
lfoot 350.304 -2.26778
ltoes 1.19108
176
root 33.7243 17.1097 5.6436 149.541 -79.7638 -143.869
lowerback -4.25475 2.14319 6.02639
upperback -4.447 2.56674 2.76988
thorax -2.07111 1.08765 -0.446247
lowerneck -20.3868 -3.65388 -5.62496
upperneck 17.6251 -4.94892 6.99537
head 9.22568 -1.94871 2.64686
rclavicle -1.91827e-014 4.33351e-014
rhumerus -37.727 13.864 -88.0835
rradius 58.4918
rwrist -0.770382
rhand -9.98336 -9.51018
rfingers 7.12502
rthumb 15.9997 -38.8695
lclavicle -1.91827e-014 4.33351e-014
lhumerus -45.0963 2.4792 92.0483
lradius 42.1892
lwrist 0.863651
lhand -11.9004 15.5608
lfingers 7.12502
lthumb 14.153 45.0587
rfemur 5.46402 -0.0301683 22.5172
rtibia 37.5106
rfoot 0.932868 3.18386
rtoes -10.0959
lfemur -31.8624 11.0773 -15.1623
ltibia 43.0414
lfoot 349.427 -1.99495
ltoes 3.01895
177
root 33.582 17.1164 5.67288 150.42 -80.6955 -145.214
lowerback -3.92134 1.74265 5.34069
upperback -4.40986 2.0876 2.69157
thorax -2.26038 0.868086 -0.170621
lowerneck -20.3456 -3.53012 -5.57266
upperneck 17.6966 -4.77796 6.89624
head 9.22679 -1.87675 2.62922
rclavicle -3.47873e-016 2.82274e-014
rhumerus -39.055 13.0642 -87.6267
rradius 56.7231
rwrist -0.240642
rhand -9.68991 -9.64896
rfingers 7.12502
rthumb 16.2822 -38.9853
lclavicle -3.47873e-016 2.82274e-014
lhumerus -43.4226 2.53733 92.4364
lradius 41.7143
lwrist 0.86497
lhand -12.0748 15.5731
lfingers 7.12502
lthumb 13.9849 45.0827
rfemur 3.58894 -0.873325 21.1727
rtibia 41.4002
rfoot 5.25879 3.25983
rtoes -6.71166
lfemur -30.3594 10.2482 -16.1685
ltibia 41.9362
lfoot 348.807 -1.81895
ltoes 4.21347
178
root 33.448 17.126 5.70145 151.607 -81.5855 -146.902
lowerback -3.49786 1.36488 4.65184
upperback -4.34248 1.63893 2.61039
thorax -2.45911 0.665342 0.109133
lowerneck -20.3033 -3.41458 -5.52182
upperneck 17.7223 -4.61915 6.81712
head 9.2136 -1.80854 2.61654
rclavicle -1.25234e-014 5.1684e-015
rhumerus -40.2472 12.0778 -87.0106
rradius 54.8473
rwrist 0.305718
rhand -9.45003 -9.77046
rfingers 7.12502
rthumb 16.5132 -39.0878
lclavicle -1.25234e-014 5.1684e-015
lhumerus -41.6439 2.47283 92.8519
lradius 41.2575
lwrist 0.896244
lhand -12.1704 15.5035
lfingers 7.12502
lthumb 13.8928 45.0195
rfemur 1.47093 -1.61169 19.9068
rtibia 45.5648
rfoot 9.68864 3.1503
rtoes -2.84357
lfemur -28.9379 9.2483 -17.076
ltibia 41.0146
lfoot 348.311 -1.73266
ltoes 4.96454
179
root 33.3206 17.1369 5.72912 153.389 -82.373 -149.207
lowerback -3.03623 1.03291 3.97396
upperback -4.22859 1.24523 2.5226
thorax -2.6215 0.491854 0.382783
lowerneck -20.2747 -3.30623 -5.46401
upperneck 17.7059 -4.47329 6.75839
head 9.18981 -1.74344 2.6074
rclavicle 2.18663e-015 9.93923e-015
rhumerus -41.2908 10.9105 -86.2312
rradius 52.8879
rwrist 0.895759
rhand -9.3072 -9.78647
rfingers 7.12502
rthumb 16.6507 -39.0923
lclavicle 2.18663e-015 9.93923e-015
lhumerus -39.77 2.26141 93.283
lradius 40.8551
lwrist 0.945819
lhand -12.1892 15.3376
lfingers 7.12502
lthumb 13.8747 44.8548
rfemur -0.881235 -2.20229 18.7374
rtibia 49.9891
rfoot 13.7505 3.00683
rtoes 1.02848
lfemur -27.547 8.17588 -17.8973
ltibia 40.1863
lfoot 347.878 -1.70349
ltoes 5.44179
180
root 33.1995 17.1477 5.75497 156.009 -83.063 -152.351
lowerback -2.55113 0.73672 3.28255
upperback -4.07531 0.892305 2.42699
thorax -2.74914 0.340346 0.661605
lowerneck -20.3106 -3.19918 -5.39635
upperneck 17.6797 -4.33143 6.7147
head 9.17476 -1.6764 2.60081
rclavicle -1.11816e-014 4.37326e-015
rhumerus -42.179 9.6053 -85.3024
rradius 50.8704
rwrist 1.55263
rhand -9.24545 -9.7534
rfingers 7.12502
rthumb 16.7102 -39.0542
lclavicle -1.11816e-014 4.37326e-015
lhumerus -37.8268 1.92254 93.7043
lradius 40.5378
lwrist 0.98811
lhand -12.1407 15.0772
lfingers 7.12502
lthumb 13.9214 44.5912
rfemur -3.47074 -2.66588 17.6562
rtibia 54.6464
rfoot 17.0476 2.88724
rtoes 4.61273
lfemur -26.1769 7.12574 -18.6904
ltibia 39.3929
lfoot 347.476 -1.69961
ltoes 5.78146
181
root 33.0835 17.1579 5.77903 159.916 -83.6158 -156.76
lowerback -2.0722 0.485049 2.5643
upperback -3.89215 0.589941 2.31496
thorax -2.83637 0.215127 0.943374
lowerneck -20.4068 -3.08856 -5.30857
upperneck 17.6564 -4.18918 6.67676
head 9.17135 -1.60582 2.59271
rclavicle 1.23743e-014 -1.07344e-014
rhumerus -42.9334 8.20374 -84.2471
rradius 48.8172
rwrist 2.28296
rhand -9.24606 -9.66288
rfingers 7.12502
rthumb 16.7096 -38.9637
lclavicle 1.23743e-014 -1.07344e-014
lhumerus -35.8596 1.43687 94.1006
lradius 40.3495
lwrist 1.03321
lhand -12.0094 14.8252
lfingers 7.12502
lthumb 14.0479 44.3304
rfemur -6.29606 -2.99371 16.6364
rtibia 59.4981
rfoot 19.3262 2.78078
rtoes 7.61047
lfemur -24.8119 6.208 -19.5124
ltibia 38.579
lfoot 347.093 -1.65441
ltoes 6.05633
